<mxfile>
    <diagram id="0w8H-qsk6XLiKH_i-Pxt" name="第 1 页">
        <mxGraphModel dx="546" dy="395" grid="1" gridSize="10" guides="1" tooltips="1" connect="1" arrows="1" fold="1" page="1" pageScale="1" pageWidth="1169" pageHeight="827" math="0" shadow="0">
            <root>
                <mxCell id="0"/>
                <mxCell id="1" parent="0"/>
                <mxCell id="2" value="" style="shape=table;html=1;whiteSpace=wrap;startSize=0;container=1;collapsible=0;childLayout=tableLayout;fontSize=18;labelBackgroundColor=#FFCC99;labelBorderColor=none;" vertex="1" parent="1">
                    <mxGeometry x="320" y="160" width="280" height="280" as="geometry"/>
                </mxCell>
                <mxCell id="3" value="" style="shape=partialRectangle;html=1;whiteSpace=wrap;collapsible=0;dropTarget=0;pointerEvents=0;fillColor=none;top=0;left=0;bottom=0;right=0;points=[[0,0.5],[1,0.5]];portConstraint=eastwest;" vertex="1" parent="2">
                    <mxGeometry width="280" height="56" as="geometry"/>
                </mxCell>
                <mxCell id="4" value="" style="shape=partialRectangle;html=1;whiteSpace=wrap;connectable=0;overflow=hidden;fillColor=none;top=0;left=0;bottom=0;right=0;fontSize=18;fontStyle=1" vertex="1" parent="3">
                    <mxGeometry width="56" height="56" as="geometry"/>
                </mxCell>
                <mxCell id="5" value="" style="shape=partialRectangle;html=1;whiteSpace=wrap;connectable=0;overflow=hidden;fillColor=none;top=0;left=0;bottom=0;right=0;fontSize=18;fontStyle=1" vertex="1" parent="3">
                    <mxGeometry x="56" width="56" height="56" as="geometry"/>
                </mxCell>
                <mxCell id="6" value="E" style="shape=partialRectangle;html=1;whiteSpace=wrap;connectable=0;overflow=hidden;top=0;left=0;bottom=0;right=0;fontSize=18;fontStyle=1;fillColor=#fff2cc;strokeColor=#d6b656;" vertex="1" parent="3">
                    <mxGeometry x="112" width="56" height="56" as="geometry"/>
                </mxCell>
                <mxCell id="7" value="" style="shape=partialRectangle;html=1;whiteSpace=wrap;connectable=0;overflow=hidden;fillColor=none;top=0;left=0;bottom=0;right=0;fontSize=18;fontStyle=1" vertex="1" parent="3">
                    <mxGeometry x="168" width="56" height="56" as="geometry"/>
                </mxCell>
                <mxCell id="8" value="" style="shape=partialRectangle;html=1;whiteSpace=wrap;connectable=0;overflow=hidden;fillColor=none;top=0;left=0;bottom=0;right=0;fontSize=18;fontStyle=1" vertex="1" parent="3">
                    <mxGeometry x="224" width="56" height="56" as="geometry"/>
                </mxCell>
                <mxCell id="9" value="" style="shape=partialRectangle;html=1;whiteSpace=wrap;collapsible=0;dropTarget=0;pointerEvents=0;fillColor=none;top=0;left=0;bottom=0;right=0;points=[[0,0.5],[1,0.5]];portConstraint=eastwest;" vertex="1" parent="2">
                    <mxGeometry y="56" width="280" height="56" as="geometry"/>
                </mxCell>
                <mxCell id="10" value="" style="shape=partialRectangle;html=1;whiteSpace=wrap;connectable=0;overflow=hidden;fillColor=none;top=0;left=0;bottom=0;right=0;fontSize=18;fontStyle=1" vertex="1" parent="9">
                    <mxGeometry width="56" height="56" as="geometry"/>
                </mxCell>
                <mxCell id="11" value="" style="shape=partialRectangle;html=1;whiteSpace=wrap;connectable=0;overflow=hidden;fillColor=none;top=0;left=0;bottom=0;right=0;fontSize=18;fontStyle=1" vertex="1" parent="9">
                    <mxGeometry x="56" width="56" height="56" as="geometry"/>
                </mxCell>
                <mxCell id="12" value="&lt;span style=&quot;&quot;&gt;A&lt;/span&gt;" style="shape=partialRectangle;html=1;whiteSpace=wrap;connectable=0;overflow=hidden;top=0;left=0;bottom=0;right=0;fontSize=18;fontStyle=1;labelBackgroundColor=#FFCC99;fillColor=#FFCC99;labelBorderColor=none;" vertex="1" parent="9">
                    <mxGeometry x="112" width="56" height="56" as="geometry"/>
                </mxCell>
                <mxCell id="13" value="D" style="shape=partialRectangle;html=1;whiteSpace=wrap;connectable=0;overflow=hidden;fillColor=#fff2cc;top=0;left=0;bottom=0;right=0;fontSize=18;fontStyle=1;strokeColor=#d6b656;" vertex="1" parent="9">
                    <mxGeometry x="168" width="56" height="56" as="geometry"/>
                </mxCell>
                <mxCell id="14" value="" style="shape=partialRectangle;html=1;whiteSpace=wrap;connectable=0;overflow=hidden;fillColor=none;top=0;left=0;bottom=0;right=0;fontSize=18;fontStyle=1" vertex="1" parent="9">
                    <mxGeometry x="224" width="56" height="56" as="geometry"/>
                </mxCell>
                <mxCell id="15" value="" style="shape=partialRectangle;html=1;whiteSpace=wrap;collapsible=0;dropTarget=0;pointerEvents=0;fillColor=none;top=0;left=0;bottom=0;right=0;points=[[0,0.5],[1,0.5]];portConstraint=eastwest;" vertex="1" parent="2">
                    <mxGeometry y="112" width="280" height="56" as="geometry"/>
                </mxCell>
                <mxCell id="16" value="" style="shape=partialRectangle;html=1;whiteSpace=wrap;connectable=0;overflow=hidden;fillColor=none;top=0;left=0;bottom=0;right=0;fontSize=18;fontStyle=1" vertex="1" parent="15">
                    <mxGeometry width="56" height="56" as="geometry"/>
                </mxCell>
                <mxCell id="17" value="C" style="shape=partialRectangle;html=1;whiteSpace=wrap;connectable=0;overflow=hidden;fillColor=#fff2cc;top=0;left=0;bottom=0;right=0;fontSize=18;fontStyle=1;strokeColor=#d6b656;" vertex="1" parent="15">
                    <mxGeometry x="56" width="56" height="56" as="geometry"/>
                </mxCell>
                <mxCell id="18" value="" style="shape=partialRectangle;html=1;whiteSpace=wrap;connectable=0;overflow=hidden;fillColor=none;top=0;left=0;bottom=0;right=0;fontSize=18;fontStyle=1" vertex="1" parent="15">
                    <mxGeometry x="112" width="56" height="56" as="geometry"/>
                </mxCell>
                <mxCell id="19" value="F" style="shape=partialRectangle;html=1;whiteSpace=wrap;connectable=0;overflow=hidden;fillColor=#fff2cc;top=0;left=0;bottom=0;right=0;fontSize=18;fontStyle=1;strokeColor=#d6b656;" vertex="1" parent="15">
                    <mxGeometry x="168" width="56" height="56" as="geometry"/>
                </mxCell>
                <mxCell id="20" value="" style="shape=partialRectangle;html=1;whiteSpace=wrap;connectable=0;overflow=hidden;fillColor=none;top=0;left=0;bottom=0;right=0;fontSize=18;fontStyle=1" vertex="1" parent="15">
                    <mxGeometry x="224" width="56" height="56" as="geometry"/>
                </mxCell>
                <mxCell id="21" value="" style="shape=partialRectangle;html=1;whiteSpace=wrap;collapsible=0;dropTarget=0;pointerEvents=0;fillColor=none;top=0;left=0;bottom=0;right=0;points=[[0,0.5],[1,0.5]];portConstraint=eastwest;" vertex="1" parent="2">
                    <mxGeometry y="168" width="280" height="56" as="geometry"/>
                </mxCell>
                <mxCell id="22" value="" style="shape=partialRectangle;html=1;whiteSpace=wrap;connectable=0;overflow=hidden;fillColor=none;top=0;left=0;bottom=0;right=0;fontSize=18;fontStyle=1" vertex="1" parent="21">
                    <mxGeometry width="56" height="56" as="geometry"/>
                </mxCell>
                <mxCell id="23" value="" style="shape=partialRectangle;html=1;whiteSpace=wrap;connectable=0;overflow=hidden;fillColor=none;top=0;left=0;bottom=0;right=0;fontSize=18;fontStyle=1" vertex="1" parent="21">
                    <mxGeometry x="56" width="56" height="56" as="geometry"/>
                </mxCell>
                <mxCell id="24" value="B" style="shape=partialRectangle;html=1;whiteSpace=wrap;connectable=0;overflow=hidden;fillColor=#fff2cc;top=0;left=0;bottom=0;right=0;fontSize=18;fontStyle=1;strokeColor=#d6b656;" vertex="1" parent="21">
                    <mxGeometry x="112" width="56" height="56" as="geometry"/>
                </mxCell>
                <mxCell id="25" value="" style="shape=partialRectangle;html=1;whiteSpace=wrap;connectable=0;overflow=hidden;fillColor=none;top=0;left=0;bottom=0;right=0;fontSize=18;fontStyle=1" vertex="1" parent="21">
                    <mxGeometry x="168" width="56" height="56" as="geometry"/>
                </mxCell>
                <mxCell id="26" value="" style="shape=partialRectangle;html=1;whiteSpace=wrap;connectable=0;overflow=hidden;fillColor=none;top=0;left=0;bottom=0;right=0;fontSize=18;fontStyle=1" vertex="1" parent="21">
                    <mxGeometry x="224" width="56" height="56" as="geometry"/>
                </mxCell>
                <mxCell id="27" value="" style="shape=partialRectangle;html=1;whiteSpace=wrap;collapsible=0;dropTarget=0;pointerEvents=0;fillColor=none;top=0;left=0;bottom=0;right=0;points=[[0,0.5],[1,0.5]];portConstraint=eastwest;" vertex="1" parent="2">
                    <mxGeometry y="224" width="280" height="56" as="geometry"/>
                </mxCell>
                <mxCell id="28" value="" style="shape=partialRectangle;html=1;whiteSpace=wrap;connectable=0;overflow=hidden;fillColor=none;top=0;left=0;bottom=0;right=0;fontSize=18;fontStyle=1" vertex="1" parent="27">
                    <mxGeometry width="56" height="56" as="geometry"/>
                </mxCell>
                <mxCell id="29" value="G" style="shape=partialRectangle;html=1;whiteSpace=wrap;connectable=0;overflow=hidden;fillColor=#fff2cc;top=0;left=0;bottom=0;right=0;fontSize=18;fontStyle=1;strokeColor=#d6b656;" vertex="1" parent="27">
                    <mxGeometry x="56" width="56" height="56" as="geometry"/>
                </mxCell>
                <mxCell id="30" value="" style="shape=partialRectangle;html=1;whiteSpace=wrap;connectable=0;overflow=hidden;fillColor=none;top=0;left=0;bottom=0;right=0;fontSize=18;fontStyle=1" vertex="1" parent="27">
                    <mxGeometry x="112" width="56" height="56" as="geometry"/>
                </mxCell>
                <mxCell id="31" value="" style="shape=partialRectangle;html=1;whiteSpace=wrap;connectable=0;overflow=hidden;top=0;left=0;bottom=0;right=0;fontSize=18;fontStyle=1;strokeWidth=1;" vertex="1" parent="27">
                    <mxGeometry x="168" width="56" height="56" as="geometry"/>
                </mxCell>
                <mxCell id="32" value="" style="shape=partialRectangle;html=1;whiteSpace=wrap;connectable=0;overflow=hidden;fillColor=none;top=0;left=0;bottom=0;right=0;fontSize=18;fontStyle=1" vertex="1" parent="27">
                    <mxGeometry x="224" width="56" height="56" as="geometry"/>
                </mxCell>
            </root>
        </mxGraphModel>
    </diagram>
</mxfile>